<svg height="443pt" viewBox="0 -58 443.73333 443" width="443pt" xmlns="http://www.w3.org/2000/svg"><path d="m373.25 321.21875h-302.769531c-16.300781 0-29.519531-13.21875-29.519531-29.519531v-223.066407h361.8125v223.066407c0 16.300781-13.21875 29.519531-29.523438 29.519531zm0 0" fill="#94c1ff"/><path d="m373.253906 328.046875h-302.773437c-20.039063 0-36.347657-16.308594-36.347657-36.351563v-223.0625c0-3.769531 3.054688-6.824218 6.828126-6.824218h361.8125c3.773437 0 6.828124 3.054687 6.828124 6.824218v223.0625c0 20.042969-16.308593 36.351563-36.347656 36.351563zm-325.46875-252.585937v216.234374c0 12.515626 10.183594 22.699219 22.695313 22.699219h302.773437c12.511719 0 22.691406-10.183593 22.691406-22.699219v-216.234374zm0 0" fill="#0e65e5"/><path d="m414.980469 68.632812h-386.226563c-12.109375 0-21.925781-9.816406-21.925781-21.925781v-17.585937c0-12.109375 9.816406-21.929688 21.925781-21.929688h386.226563c12.109375 0 21.925781 9.820313 21.925781 21.929688v17.585937c0 12.109375-9.816406 21.925781-21.925781 21.925781zm0 0" fill="#d7e9ff"/><g fill="#0e65e5"><path d="m414.980469 75.460938h-386.226563c-15.851562 0-28.753906-12.902344-28.753906-28.753907v-17.585937c0-15.855469 12.902344-28.753906 28.753906-28.753906h386.226563c15.851562 0 28.753906 12.898437 28.753906 28.753906v17.585937c0 15.851563-12.902344 28.753907-28.753906 28.753907zm-386.226563-61.441407c-8.328125 0-15.101562 6.773438-15.101562 15.101563v17.585937c0 8.324219 6.773437 15.101563 15.101562 15.101563h386.226563c8.328125 0 15.101562-6.777344 15.101562-15.101563v-17.585937c0-8.328125-6.773437-15.101563-15.101562-15.101563zm0 0"/><path d="m361.8125 68.632812v223.0625c0 16.304688-13.21875 29.523438-29.519531 29.523438h40.957031c16.304688 0 29.523438-13.21875 29.523438-29.523438v-223.0625zm0 0"/><path d="m373.253906 328.046875h-40.960937c-3.773438 0-6.828125-3.058594-6.828125-6.828125s3.054687-6.824219 6.828125-6.824219c12.511719 0 22.695312-10.183593 22.695312-22.699219v-223.0625c0-3.769531 3.050781-6.824218 6.824219-6.824218h40.960938c3.773437 0 6.828124 3.054687 6.828124 6.824218v223.0625c0 20.042969-16.308593 36.351563-36.347656 36.351563zm-12.585937-13.652344h12.585937c12.511719 0 22.691406-10.183593 22.691406-22.699219v-216.234374h-27.304687v216.234374c0 8.578126-2.988281 16.476563-7.972656 22.699219zm0 0"/><path d="m414.980469 7.191406h-40.960938c12.109375 0 21.925781 9.820313 21.925781 21.929688v17.585937c0 12.109375-9.816406 21.925781-21.925781 21.925781h40.960938c12.109375 0 21.925781-9.816406 21.925781-21.925781v-17.585937c0-12.109375-9.816406-21.929688-21.925781-21.929688zm0 0"/><path d="m414.980469 75.460938h-40.960938c-3.773437 0-6.828125-3.058594-6.828125-6.828126 0-3.769531 3.054688-6.824218 6.828125-6.824218 8.328125 0 15.101563-6.777344 15.101563-15.101563v-17.585937c0-8.328125-6.773438-15.101563-15.101563-15.101563-3.773437 0-6.828125-3.054687-6.828125-6.828125 0-3.769531 3.054688-6.824218 6.828125-6.824218h40.960938c15.851562 0 28.753906 12.898437 28.753906 28.753906v17.585937c0 15.851563-12.902344 28.753907-28.753906 28.753907zm-16.5-13.652344h16.5c8.324219 0 15.097656-6.777344 15.097656-15.101563v-17.585937c0-8.328125-6.773437-15.101563-15.097656-15.101563h-16.5c2.71875 4.390625 4.292969 9.566407 4.292969 15.101563v17.585937c0 5.535157-1.574219 10.710938-4.292969 15.101563zm0 0"/></g><path d="m285.273438 157.378906h-126.816407c-12.109375 0-21.925781-9.816406-21.925781-21.925781v-3.933594c0-12.109375 9.816406-21.929687 21.925781-21.929687h126.816407c12.109374 0 21.925781 9.820312 21.925781 21.929687v3.933594c0 12.109375-9.816407 21.925781-21.925781 21.925781zm0 0" fill="#2a8ee6"/><path d="m285.273438 164.207031h-126.816407c-15.851562 0-28.75-12.902343-28.75-28.753906v-3.933594c0-15.855469 12.898438-28.753906 28.753907-28.753906h126.8125c15.855468 0 28.753906 12.898437 28.753906 28.753906v3.933594c0 15.851563-12.902344 28.753906-28.753906 28.753906zm-126.8125-47.785156c-8.328126 0-15.101563 6.773437-15.101563 15.097656v3.933594c0 8.328125 6.773437 15.101563 15.101563 15.101563h126.8125c8.328124 0 15.101562-6.773438 15.101562-15.101563v-3.933594c0-8.324219-6.773438-15.097656-15.101562-15.097656zm0 0" fill="#0e65e5"/><path d="m423.253906 328.046875h-409.601562c-3.773438 0-6.824219-3.058594-6.824219-6.828125s3.050781-6.824219 6.824219-6.824219h409.601562c3.773438 0 6.824219 3.054688 6.824219 6.824219s-3.050781 6.828125-6.824219 6.828125zm0 0" fill="#0e65e5"/><path d="m354.988281 171.035156c-3.773437 0-6.828125-3.058594-6.828125-6.828125v-27.308593c0-3.769532 3.054688-6.824219 6.828125-6.824219 3.773438 0 6.824219 3.054687 6.824219 6.824219v27.308593c0 3.769531-3.050781 6.828125-6.824219 6.828125zm0 0" fill="#fff"/><path d="m368.640625 157.378906h-27.308594c-3.773437 0-6.824219-3.054687-6.824219-6.824218 0-3.769532 3.050782-6.828126 6.824219-6.828126h27.308594c3.773437 0 6.824219 3.058594 6.824219 6.828126 0 3.769531-3.050782 6.824218-6.824219 6.824218zm0 0" fill="#fff"/><path d="m129.707031 307.566406h-51.648437c-12.925782 0-23.445313-10.515625-23.445313-23.441406v-44.824219c0-3.769531 3.054688-6.828125 6.828125-6.828125 3.773438 0 6.824219 3.058594 6.824219 6.828125v44.824219c0 5.394531 4.394531 9.789062 9.792969 9.789062h51.648437c3.773438 0 6.828125 3.054688 6.828125 6.824219 0 3.773438-3.054687 6.828125-6.828125 6.828125zm0 0" fill="#fff"/></svg>