<svg height="409.6pt" viewBox="0 0 409.6 409.6" width="409.6pt" xmlns="http://www.w3.org/2000/svg"><path d="m402.773438 204.800781c0 109.335938-88.636719 197.972657-197.972657 197.972657-109.339843 0-197.972656-88.636719-197.972656-197.972657 0-109.339843 88.632813-197.972656 197.972656-197.972656 109.335938 0 197.972657 88.632813 197.972657 197.972656zm0 0" fill="#94c1ff" fill-rule="evenodd"/><g fill="#0e65e5"><path d="m204.800781 409.601562c-112.925781 0-204.800781-91.875-204.800781-204.800781s91.875-204.800781 204.800781-204.800781 204.800781 91.875 204.800781 204.800781-91.875 204.800781-204.800781 204.800781zm0-395.949218c-105.402343 0-191.148437 85.75-191.148437 191.148437 0 105.398438 85.746094 191.144531 191.148437 191.144531 105.398438 0 191.144531-85.746093 191.144531-191.144531 0-105.398437-85.746093-191.148437-191.144531-191.148437zm0 0"/><path d="m204.800781 361.8125c-102.421875 0-186.671875-77.78125-196.921875-177.492188-.691406 6.734376-1.050781 13.5625-1.050781 20.480469 0 109.332031 88.632813 197.972657 197.972656 197.972657 109.335938 0 197.972657-88.640626 197.972657-197.972657 0-6.917969-.359376-13.746093-1.054688-20.480469-10.246094 99.710938-94.496094 177.492188-196.917969 177.492188zm0 0" fill-rule="evenodd"/><path d="m204.800781 409.601562c-112.925781 0-204.800781-91.875-204.800781-204.800781 0-7.035156.367188-14.160156 1.085938-21.179687.359374-3.480469 3.296874-6.128906 6.792968-6.128906 3.5 0 6.433594 2.648437 6.792969 6.128906 10.039063 97.695312 91.773437 171.367187 190.128906 171.367187 98.351563 0 180.085938-73.671875 190.125-171.367187.359375-3.480469 3.292969-6.128906 6.792969-6.128906s6.433594 2.648437 6.792969 6.128906c.71875 7.019531 1.085937 14.144531 1.085937 21.179687.003906 112.925781-91.871094 204.800781-204.796875 204.800781zm-185.46875-158.46875c20.761719 83.082032 96.042969 144.8125 185.46875 144.8125s164.707031-61.730468 185.464844-144.8125c-32.804687 70.074219-103.792969 117.507813-185.464844 117.507813s-152.660156-47.433594-185.46875-117.507813zm0 0"/></g><path d="m307.199219 102.398438c-3.773438 0-6.824219-3.054688-6.824219-6.824219v-27.308594c0-3.769531 3.050781-6.824219 6.824219-6.824219 3.773437 0 6.828125 3.054688 6.828125 6.824219v27.308594c0 3.769531-3.054688 6.824219-6.828125 6.824219zm0 0" fill="#fff"/><path d="m320.851562 88.746094h-27.304687c-3.773437 0-6.828125-3.054688-6.828125-6.824219 0-3.773437 3.054688-6.828125 6.828125-6.828125h27.304687c3.773438 0 6.828126 3.054688 6.828126 6.828125 0 3.769531-3.054688 6.824219-6.828126 6.824219zm0 0" fill="#fff"/><path d="m34.132812 211.625c-3.773437 0-6.824218-3.054688-6.824218-6.824219 0-97.871093 79.617187-177.492187 177.492187-177.492187 3.773438 0 6.824219 3.054687 6.824219 6.824218 0 3.769532-3.050781 6.828126-6.824219 6.828126-90.339843 0-163.839843 73.496093-163.839843 163.839843 0 3.769531-3.054688 6.824219-6.828126 6.824219zm0 0" fill="#fff"/><path d="m323.679688 195.144531-116.054688-116.050781c-5.332031-5.332031-13.972656-5.332031-19.304688 0-5.332031 5.332031-5.332031 13.976562 0 19.308594l92.746094 92.746094h-171.839844c-7.539062 0-13.652343 6.113281-13.652343 13.652343 0 7.539063 6.113281 13.652344 13.652343 13.652344h171.839844l-92.746094 92.746094c-5.332031 5.332031-5.332031 13.976562 0 19.308593 2.664063 2.664063 6.160157 4 9.652344 4 3.496094 0 6.988282-1.335937 9.652344-4l116.054688-116.054687c2.558593-2.5625 4-6.035156 4-9.65625s-1.441407-7.089844-4-9.652344zm0 0" fill="#5c9eff"/><path d="m197.972656 341.332031c-5.464844 0-10.605468-2.128906-14.480468-5.996093-3.867188-3.867188-6-9.011719-6-14.484376 0-5.46875 2.132812-10.613281 6-14.480468l81.09375-81.089844h-155.359376c-11.292968 0-20.480468-9.1875-20.480468-20.480469s9.1875-20.480469 20.480468-20.480469h155.359376l-81.09375-81.09375c-3.867188-3.863281-6-9.007812-6-14.480468 0-5.46875 2.132812-10.613282 6-14.480469 7.996093-7.984375 20.980468-7.976563 28.960937 0l116.054687 116.050781v.003906c3.867188 3.871094 6 9.011719 6 14.476563 0 5.46875-2.132812 10.613281-6 14.480469l-116.054687 116.058594c-3.871094 3.867187-9.011719 5.996093-14.480469 5.996093zm-88.746094-143.359375c-3.765624 0-6.828124 3.0625-6.828124 6.828125s3.0625 6.824219 6.828124 6.824219h171.839844c2.761719 0 5.253906 1.664062 6.308594 4.21875 1.058594 2.546875.472656 5.484375-1.480469 7.4375l-92.746093 92.742188c-1.289063 1.292968-2 3.007812-2 4.828124 0 1.824219.710937 3.539063 2 4.828126 2.570312 2.582031 7.078124 2.582031 9.652343 0l116.050781-116.054688c1.289063-1.289062 2-3.003906 2-4.828125 0-1.820313-.710937-3.535156-2-4.828125l-116.050781-116.050781c-2.667969-2.65625-6.988281-2.660157-9.652343.003906-1.289063 1.285156-2 3.003906-2 4.824219 0 1.824218.710937 3.539062 2 4.828125l92.746093 92.746093c1.953125 1.953126 2.539063 4.886719 1.480469 7.4375-1.054688 2.550782-3.546875 4.214844-6.308594 4.214844zm0 0" fill="#0e65e5"/></svg>